<?xml version="1.0" encoding="UTF-8"?>
<svg version="1.1" xmlns="http://www.w3.org/2000/svg" width="1183" height="556">
<path d="M0 0 C390.39 0 780.78 0 1183 0 C1183 183.48 1183 366.96 1183 556 C792.61 556 402.22 556 0 556 C0 372.52 0 189.04 0 0 Z " fill="#000000" transform="translate(0,0)"/>
<path d="M0 0 C227.04 0 454.08 0 688 0 C688 4.95 688 9.9 688 15 C460.96 15 233.92 15 0 15 C0 10.05 0 5.1 0 0 Z " fill="#FFFFFF" transform="translate(108,509)"/>
<path d="M0 0 C205.92 0 411.84 0 624 0 C624 4.62 624 9.24 624 14 C418.08 14 212.16 14 0 14 C0 9.38 0 4.76 0 0 Z " fill="#FEFEFE" transform="translate(458,28)"/>
<path d="M0 0 C22 0 22 0 27 3 C29.52023425 6.78035137 29.34099282 9.86065615 29.37109375 14.24609375 C29.38463646 15.45737694 29.38463646 15.45737694 29.39845276 16.69313049 C29.41295324 18.40028171 29.4218415 20.10748847 29.42553711 21.81469727 C29.43744273 24.42494293 29.48663309 27.03283083 29.53710938 29.64257812 C29.54657285 31.3020718 29.55380825 32.96157999 29.55859375 34.62109375 C29.57812607 35.40036728 29.59765839 36.17964081 29.61778259 36.98252869 C29.58642196 40.75331331 29.33382975 42.61662383 26.82373047 45.49926758 C23.65493676 47.1833913 21.82686189 47.46688475 18.26171875 47.390625 C17.29967529 47.38063477 16.33763184 47.37064453 15.34643555 47.36035156 C14.13898682 47.32393555 12.93153809 47.28751953 11.6875 47.25 C5.9021875 47.12625 5.9021875 47.12625 0 47 C0 31.49 0 15.98 0 0 Z " fill="#FEFEFE" transform="translate(354,7)"/>
<path d="M0 0 C12.21 0 24.42 0 37 0 C37 11.88 37 23.76 37 36 C24.79 36 12.58 36 0 36 C0 24.12 0 12.24 0 0 Z " fill="#2BD381" transform="translate(232,283)"/>
<path d="M0 0 C12.21 0 24.42 0 37 0 C37 11.88 37 23.76 37 36 C24.79 36 12.58 36 0 36 C0 24.12 0 12.24 0 0 Z " fill="#2BD381" transform="translate(191,283)"/>
<path d="M0 0 C12.21 0 24.42 0 37 0 C37 11.88 37 23.76 37 36 C24.79 36 12.58 36 0 36 C0 24.12 0 12.24 0 0 Z " fill="#55F208" transform="translate(270,244)"/>
<path d="M0 0 C12.21 0 24.42 0 37 0 C37 11.88 37 23.76 37 36 C24.79 36 12.58 36 0 36 C0 24.12 0 12.24 0 0 Z " fill="#E1A000" transform="translate(270,203)"/>
<path d="M0 0 C28.71 0 57.42 0 87 0 C87 4.95 87 9.9 87 15 C58.29 15 29.58 15 0 15 C0 10.05 0 5.1 0 0 Z " fill="#FFFFFF" transform="translate(995,509)"/>
<path d="M0 0 C1.01964844 -0.01675781 2.03929687 -0.03351563 3.08984375 -0.05078125 C7.67893696 0.51004092 11.11949263 2.78089116 14.0625 6.3125 C15.7936244 11.50587319 15.28796607 17.07159206 15.30273438 22.50878906 C15.31243464 24.67291785 15.34346767 26.83609419 15.375 29 C15.38153127 30.38280688 15.38678126 31.76562053 15.390625 33.1484375 C15.3999707 34.40188965 15.40931641 35.6553418 15.41894531 36.94677734 C14.90661219 41.78446534 12.78439886 45.21091761 9.0625 48.3125 C3.83266104 50.05577965 -2.74545208 50.48595762 -7.98828125 48.55859375 C-11.03465698 46.63098628 -12.68981416 44.63244749 -13.9375 41.3125 C-14.1522043 38.80857877 -14.26526954 36.41829964 -14.2734375 33.9140625 C-14.2834227 32.84519302 -14.2834227 32.84519302 -14.29360962 31.75473022 C-14.30371288 30.25024996 -14.30842736 28.74572509 -14.30810547 27.24121094 C-14.31247289 24.95171393 -14.34879599 22.66415548 -14.38671875 20.375 C-14.39258884 18.90886071 -14.39655695 17.44271233 -14.3984375 15.9765625 C-14.41280853 15.29824371 -14.42717957 14.61992493 -14.44198608 13.92105103 C-14.39471297 8.94793497 -13.01907012 6.15698836 -9.9375 2.3125 C-6.76882207 0.02657227 -3.84527312 0.01454706 0 0 Z " fill="#FEFEFE" transform="translate(900.9375,487.6875)"/>
<path d="M0 0 C11.88 0 23.76 0 36 0 C36 11.88 36 23.76 36 36 C24.12 36 12.24 36 0 36 C0 24.12 0 12.24 0 0 Z " fill="#67F40A" transform="translate(151,244)"/>
<path d="M0 0 C11.88 0 23.76 0 36 0 C36 11.88 36 23.76 36 36 C24.12 36 12.24 36 0 36 C0 24.12 0 12.24 0 0 Z " fill="#E1A000" transform="translate(151,204)"/>
<path d="M0 0 C11.88 0 23.76 0 36 0 C36 11.88 36 23.76 36 36 C24.12 36 12.24 36 0 36 C0 24.12 0 12.24 0 0 Z " fill="#FE3721" transform="translate(232,164)"/>
<path d="M0 0 C12.21 0 24.42 0 37 0 C37 11.55 37 23.1 37 35 C24.79 35 12.58 35 0 35 C0 23.45 0 11.9 0 0 Z " fill="#0040F3" transform="translate(110,363)"/>
<path d="M0 0 C12.21 0 24.42 0 37 0 C37 11.55 37 23.1 37 35 C24.79 35 12.58 35 0 35 C0 23.45 0 11.9 0 0 Z " fill="#FF3820" transform="translate(191,165)"/>
<path d="M0 0 C12.21 0 24.42 0 37 0 C37 11.55 37 23.1 37 35 C24.79 35 12.58 35 0 35 C0 23.45 0 11.9 0 0 Z " fill="#FF3820" transform="translate(110,165)"/>
<path d="M0 0 C11.88 0 23.76 0 36 0 C36 11.55 36 23.1 36 35 C24.12 35 12.24 35 0 35 C0 23.45 0 11.9 0 0 Z " fill="#0040F3" transform="translate(192,363)"/>
<path d="M0 0 C11.88 0 23.76 0 36 0 C36 11.55 36 23.1 36 35 C24.12 35 12.24 35 0 35 C0 23.45 0 11.9 0 0 Z " fill="#0040F3" transform="translate(151,363)"/>
<path d="M0 0 C11.88 0 23.76 0 36 0 C36 11.55 36 23.1 36 35 C24.12 35 12.24 35 0 35 C0 23.45 0 11.9 0 0 Z " fill="#21A5EE" transform="translate(151,323)"/>
<path d="M0 0 C11.88 0 23.76 0 36 0 C36 11.55 36 23.1 36 35 C24.12 35 12.24 35 0 35 C0 23.45 0 11.9 0 0 Z " fill="#22D865" transform="translate(151,284)"/>
<path d="M0 0 C11.88 0 23.76 0 36 0 C36 11.55 36 23.1 36 35 C24.12 35 12.24 35 0 35 C0 23.45 0 11.9 0 0 Z " fill="#FF3820" transform="translate(151,165)"/>
<path d="M0 0 C22 0 22 0 27 4 C28.50156874 7.00313748 28.09281204 9.79067522 28.0625 13.125 C28.05347656 14.40632813 28.04445313 15.68765625 28.03515625 17.0078125 C28.02355469 17.99523437 28.01195312 18.98265625 28 20 C26.02 20.99 26.02 20.99 24 22 C24 22.66 24 23.32 24 24 C25.32 24.66 26.64 25.32 28 26 C28 32.93 28 39.86 28 47 C24.04 47 20.08 47 16 47 C15.67 40.4 15.34 33.8 15 27 C14.34 26.67 13.68 26.34 13 26 C13 32.93 13 39.86 13 47 C8.71 47 4.42 47 0 47 C0 31.49 0 15.98 0 0 Z " fill="#FEFEFE" transform="translate(235,7)"/>
<path d="M0 0 C28.71 0 57.42 0 87 0 C87 4.62 87 9.24 87 14 C58.29 14 29.58 14 0 14 C0 9.38 0 4.76 0 0 Z " fill="#FFFFFF" transform="translate(108,28)"/>
<path d="M0 0 C3.46888695 1.85494165 5.35403742 3.60633115 6.73046875 7.2421875 C6.98479019 10.59923055 6.81923509 13.86906658 6.73046875 17.2421875 C2.44046875 17.2421875 -1.84953125 17.2421875 -6.26953125 17.2421875 C-6.59953125 14.2721875 -6.92953125 11.3021875 -7.26953125 8.2421875 C-7.59953125 8.2421875 -7.92953125 8.2421875 -8.26953125 8.2421875 C-8.26953125 18.4721875 -8.26953125 28.7021875 -8.26953125 39.2421875 C-7.93953125 39.2421875 -7.60953125 39.2421875 -7.26953125 39.2421875 C-6.93953125 35.9421875 -6.60953125 32.6421875 -6.26953125 29.2421875 C-6.92953125 29.2421875 -7.58953125 29.2421875 -8.26953125 29.2421875 C-8.26953125 26.9321875 -8.26953125 24.6221875 -8.26953125 22.2421875 C-3.31953125 22.2421875 1.63046875 22.2421875 6.73046875 22.2421875 C6.73046875 30.4921875 6.73046875 38.7421875 6.73046875 47.2421875 C3.06380208 47.2421875 -0.60286458 47.2421875 -4.26953125 47.2421875 C-5.25953125 47.7371875 -5.25953125 47.7371875 -6.26953125 48.2421875 C-11.56402497 48.58936742 -15.01616569 48.76640468 -19.26953125 45.2421875 C-22.38539246 41.12110305 -22.72406919 37.5021229 -22.703125 32.4921875 C-22.70836685 31.75645508 -22.7136087 31.02072266 -22.7190094 30.26269531 C-22.72541002 28.71290342 -22.72411802 27.16306282 -22.71557617 25.61328125 C-22.70705622 23.24911713 -22.73586572 20.88736385 -22.76757812 18.5234375 C-22.76919019 17.01302155 -22.7686125 15.50260135 -22.765625 13.9921875 C-22.77685898 13.2899707 -22.78809296 12.58775391 -22.79966736 11.86425781 C-22.73164007 7.04779425 -21.65258612 4.64028169 -18.26953125 1.2421875 C-13.24370984 -2.19160352 -5.6073148 -1.87232198 0 0 Z " fill="#FEFEFE" transform="translate(866.26953125,488.7578125)"/>
<path d="M0 0 C5.94 0 11.88 0 18 0 C18.84008923 4.92492676 19.67751508 9.85016705 20.50854492 14.77661133 C20.79122664 16.44776384 21.0753713 18.11866965 21.36108398 19.78930664 C22.90971648 28.85056966 24.34607909 37.82027485 25 47 C20.71 47 16.42 47 12 47 C12 44.36 12 41.72 12 39 C10.35 39 8.7 39 7 39 C7 41.64 7 44.28 7 47 C2.38 47 -2.24 47 -7 47 C-6.16840134 40.62732015 -5.33212431 34.2552787 -4.49145508 27.88378906 C-4.20597877 25.71501403 -3.92179449 23.54606853 -3.63891602 21.37695312 C-3.23270679 18.26386809 -2.82189484 15.15142042 -2.41015625 12.0390625 C-2.28407486 11.065065 -2.15799347 10.0910675 -2.02809143 9.08755493 C-1.90804245 8.18677216 -1.78799347 7.28598938 -1.66430664 6.35791016 C-1.5599379 5.56293121 -1.45556915 4.76795227 -1.34803772 3.94888306 C-1 2 -1 2 0 0 Z " fill="#FEFEFE" transform="translate(317,7)"/>
<path d="M0 0 C10.23 0 20.46 0 31 0 C31 10.23 31 20.46 31 31 C20.77 31 10.54 31 0 31 C0 20.77 0 10.54 0 0 Z " fill="#FFFFFF" transform="translate(1051,367)"/>
<path d="M0 0 C10.23 0 20.46 0 31 0 C31 10.23 31 20.46 31 31 C20.77 31 10.54 31 0 31 C0 20.77 0 10.54 0 0 Z " fill="#FFFFFF" transform="translate(1018,367)"/>
<path d="M0 0 C10.23 0 20.46 0 31 0 C31 10.23 31 20.46 31 31 C20.77 31 10.54 31 0 31 C0 20.77 0 10.54 0 0 Z " fill="#FFFFFF" transform="translate(985,367)"/>
<path d="M0 0 C10.23 0 20.46 0 31 0 C31 10.23 31 20.46 31 31 C20.77 31 10.54 31 0 31 C0 20.77 0 10.54 0 0 Z " fill="#FFFFFF" transform="translate(952,367)"/>
<path d="M0 0 C10.23 0 20.46 0 31 0 C31 10.23 31 20.46 31 31 C20.77 31 10.54 31 0 31 C0 20.77 0 10.54 0 0 Z " fill="#FFFFFF" transform="translate(919,367)"/>
<path d="M0 0 C10.23 0 20.46 0 31 0 C31 10.23 31 20.46 31 31 C20.77 31 10.54 31 0 31 C0 20.77 0 10.54 0 0 Z " fill="#FFFFFF" transform="translate(853,367)"/>
<path d="M0 0 C10.23 0 20.46 0 31 0 C31 10.23 31 20.46 31 31 C20.77 31 10.54 31 0 31 C0 20.77 0 10.54 0 0 Z " fill="#FFFFFF" transform="translate(820,367)"/>
<path d="M0 0 C10.23 0 20.46 0 31 0 C31 10.23 31 20.46 31 31 C20.77 31 10.54 31 0 31 C0 20.77 0 10.54 0 0 Z " fill="#FFFFFF" transform="translate(787,367)"/>
<path d="M0 0 C10.23 0 20.46 0 31 0 C31 10.23 31 20.46 31 31 C20.77 31 10.54 31 0 31 C0 20.77 0 10.54 0 0 Z " fill="#FFFFFF" transform="translate(754,367)"/>
<path d="M0 0 C10.23 0 20.46 0 31 0 C31 10.23 31 20.46 31 31 C20.77 31 10.54 31 0 31 C0 20.77 0 10.54 0 0 Z " fill="#FFFFFF" transform="translate(721,367)"/>
<path d="M0 0 C10.23 0 20.46 0 31 0 C31 10.23 31 20.46 31 31 C20.77 31 10.54 31 0 31 C0 20.77 0 10.54 0 0 Z " fill="#FFFFFF" transform="translate(654,367)"/>
<path d="M0 0 C10.23 0 20.46 0 31 0 C31 10.23 31 20.46 31 31 C20.77 31 10.54 31 0 31 C0 20.77 0 10.54 0 0 Z " fill="#FFFFFF" transform="translate(522,367)"/>
<path d="M0 0 C10.23 0 20.46 0 31 0 C31 10.23 31 20.46 31 31 C20.77 31 10.54 31 0 31 C0 20.77 0 10.54 0 0 Z " fill="#FFFFFF" transform="translate(423,367)"/>
<path d="M0 0 C10.23 0 20.46 0 31 0 C31 10.23 31 20.46 31 31 C20.77 31 10.54 31 0 31 C0 20.77 0 10.54 0 0 Z " fill="#FFFFFF" transform="translate(390,367)"/>
<path d="M0 0 C10.23 0 20.46 0 31 0 C31 10.23 31 20.46 31 31 C20.77 31 10.54 31 0 31 C0 20.77 0 10.54 0 0 Z " fill="#FFFFFF" transform="translate(357,367)"/>
<path d="M0 0 C10.23 0 20.46 0 31 0 C31 10.23 31 20.46 31 31 C20.77 31 10.54 31 0 31 C0 20.77 0 10.54 0 0 Z " fill="#FFFFFF" transform="translate(919,334)"/>
<path d="M0 0 C10.23 0 20.46 0 31 0 C31 10.23 31 20.46 31 31 C20.77 31 10.54 31 0 31 C0 20.77 0 10.54 0 0 Z " fill="#FFFFFF" transform="translate(721,334)"/>
<path d="M0 0 C10.23 0 20.46 0 31 0 C31 10.23 31 20.46 31 31 C20.77 31 10.54 31 0 31 C0 20.77 0 10.54 0 0 Z " fill="#FFFFFF" transform="translate(654,334)"/>
<path d="M0 0 C10.23 0 20.46 0 31 0 C31 10.23 31 20.46 31 31 C20.77 31 10.54 31 0 31 C0 20.77 0 10.54 0 0 Z " fill="#FFFFFF" transform="translate(522,334)"/>
<path d="M0 0 C10.23 0 20.46 0 31 0 C31 10.23 31 20.46 31 31 C20.77 31 10.54 31 0 31 C0 20.77 0 10.54 0 0 Z " fill="#FFFFFF" transform="translate(390,334)"/>
<path d="M0 0 C10.23 0 20.46 0 31 0 C31 10.23 31 20.46 31 31 C20.77 31 10.54 31 0 31 C0 20.77 0 10.54 0 0 Z " fill="#FFFFFF" transform="translate(919,301)"/>
<path d="M0 0 C10.23 0 20.46 0 31 0 C31 10.23 31 20.46 31 31 C20.77 31 10.54 31 0 31 C0 20.77 0 10.54 0 0 Z " fill="#FFFFFF" transform="translate(721,301)"/>
<path d="M0 0 C10.23 0 20.46 0 31 0 C31 10.23 31 20.46 31 31 C20.77 31 10.54 31 0 31 C0 20.77 0 10.54 0 0 Z " fill="#FEFEFE" transform="translate(621,301)"/>
<path d="M0 0 C10.23 0 20.46 0 31 0 C31 10.23 31 20.46 31 31 C20.77 31 10.54 31 0 31 C0 20.77 0 10.54 0 0 Z " fill="#FFFFFF" transform="translate(555,301)"/>
<path d="M0 0 C10.23 0 20.46 0 31 0 C31 10.23 31 20.46 31 31 C20.77 31 10.54 31 0 31 C0 20.77 0 10.54 0 0 Z " fill="#FEFEFE" transform="translate(390,301)"/>
<path d="M0 0 C10.23 0 20.46 0 31 0 C31 10.23 31 20.46 31 31 C20.77 31 10.54 31 0 31 C0 20.77 0 10.54 0 0 Z " fill="#FFFFFF" transform="translate(919,268)"/>
<path d="M0 0 C10.23 0 20.46 0 31 0 C31 10.23 31 20.46 31 31 C20.77 31 10.54 31 0 31 C0 20.77 0 10.54 0 0 Z " fill="#FEFEFE" transform="translate(820,268)"/>
<path d="M0 0 C10.23 0 20.46 0 31 0 C31 10.23 31 20.46 31 31 C20.77 31 10.54 31 0 31 C0 20.77 0 10.54 0 0 Z " fill="#FEFEFE" transform="translate(787,268)"/>
<path d="M0 0 C10.23 0 20.46 0 31 0 C31 10.23 31 20.46 31 31 C20.77 31 10.54 31 0 31 C0 20.77 0 10.54 0 0 Z " fill="#FFFFFF" transform="translate(754,268)"/>
<path d="M0 0 C10.23 0 20.46 0 31 0 C31 10.23 31 20.46 31 31 C20.77 31 10.54 31 0 31 C0 20.77 0 10.54 0 0 Z " fill="#FFFFFF" transform="translate(721,268)"/>
<path d="M0 0 C10.23 0 20.46 0 31 0 C31 10.23 31 20.46 31 31 C20.77 31 10.54 31 0 31 C0 20.77 0 10.54 0 0 Z " fill="#FEFEFE" transform="translate(588,268)"/>
<path d="M0 0 C10.23 0 20.46 0 31 0 C31 10.23 31 20.46 31 31 C20.77 31 10.54 31 0 31 C0 20.77 0 10.54 0 0 Z " fill="#FEFEFE" transform="translate(390,268)"/>
<path d="M0 0 C10.23 0 20.46 0 31 0 C31 10.23 31 20.46 31 31 C20.77 31 10.54 31 0 31 C0 20.77 0 10.54 0 0 Z " fill="#FFFFFF" transform="translate(919,235)"/>
<path d="M0 0 C10.23 0 20.46 0 31 0 C31 10.23 31 20.46 31 31 C20.77 31 10.54 31 0 31 C0 20.77 0 10.54 0 0 Z " fill="#FFFFFF" transform="translate(721,235)"/>
<path d="M0 0 C10.23 0 20.46 0 31 0 C31 10.23 31 20.46 31 31 C20.77 31 10.54 31 0 31 C0 20.77 0 10.54 0 0 Z " fill="#FEFEFE" transform="translate(621,235)"/>
<path d="M0 0 C10.23 0 20.46 0 31 0 C31 10.23 31 20.46 31 31 C20.77 31 10.54 31 0 31 C0 20.77 0 10.54 0 0 Z " fill="#FFFFFF" transform="translate(555,235)"/>
<path d="M0 0 C10.23 0 20.46 0 31 0 C31 10.23 31 20.46 31 31 C20.77 31 10.54 31 0 31 C0 20.77 0 10.54 0 0 Z " fill="#FEFEFE" transform="translate(390,235)"/>
<path d="M0 0 C10.23 0 20.46 0 31 0 C31 9.9 31 19.8 31 30 C20.77 30 10.54 30 0 30 C0 20.1 0 10.2 0 0 Z " fill="#FFFFFF" transform="translate(919,202)"/>
<path d="M0 0 C10.23 0 20.46 0 31 0 C31 9.9 31 19.8 31 30 C20.77 30 10.54 30 0 30 C0 20.1 0 10.2 0 0 Z " fill="#FFFFFF" transform="translate(721,202)"/>
<path d="M0 0 C10.23 0 20.46 0 31 0 C31 9.9 31 19.8 31 30 C20.77 30 10.54 30 0 30 C0 20.1 0 10.2 0 0 Z " fill="#FFFFFF" transform="translate(654,202)"/>
<path d="M0 0 C10.23 0 20.46 0 31 0 C31 9.9 31 19.8 31 30 C20.77 30 10.54 30 0 30 C0 20.1 0 10.2 0 0 Z " fill="#FFFFFF" transform="translate(522,202)"/>
<path d="M0 0 C10.23 0 20.46 0 31 0 C31 9.9 31 19.8 31 30 C20.77 30 10.54 30 0 30 C0 20.1 0 10.2 0 0 Z " fill="#FFFFFF" transform="translate(390,202)"/>
<path d="M0 0 C10.23 0 20.46 0 31 0 C31 9.9 31 19.8 31 30 C20.77 30 10.54 30 0 30 C0 20.1 0 10.2 0 0 Z " fill="#FFFFFF" transform="translate(919,169)"/>
<path d="M0 0 C10.23 0 20.46 0 31 0 C31 9.9 31 19.8 31 30 C20.77 30 10.54 30 0 30 C0 20.1 0 10.2 0 0 Z " fill="#FFFFFF" transform="translate(853,169)"/>
<path d="M0 0 C10.23 0 20.46 0 31 0 C31 9.9 31 19.8 31 30 C20.77 30 10.54 30 0 30 C0 20.1 0 10.2 0 0 Z " fill="#FFFFFF" transform="translate(820,169)"/>
<path d="M0 0 C10.23 0 20.46 0 31 0 C31 9.9 31 19.8 31 30 C20.77 30 10.54 30 0 30 C0 20.1 0 10.2 0 0 Z " fill="#FFFFFF" transform="translate(787,169)"/>
<path d="M0 0 C10.23 0 20.46 0 31 0 C31 9.9 31 19.8 31 30 C20.77 30 10.54 30 0 30 C0 20.1 0 10.2 0 0 Z " fill="#FFFFFF" transform="translate(754,169)"/>
<path d="M0 0 C10.23 0 20.46 0 31 0 C31 9.9 31 19.8 31 30 C20.77 30 10.54 30 0 30 C0 20.1 0 10.2 0 0 Z " fill="#FFFFFF" transform="translate(721,169)"/>
<path d="M0 0 C10.23 0 20.46 0 31 0 C31 9.9 31 19.8 31 30 C20.77 30 10.54 30 0 30 C0 20.1 0 10.2 0 0 Z " fill="#FFFFFF" transform="translate(654,169)"/>
<path d="M0 0 C10.23 0 20.46 0 31 0 C31 9.9 31 19.8 31 30 C20.77 30 10.54 30 0 30 C0 20.1 0 10.2 0 0 Z " fill="#FFFFFF" transform="translate(522,169)"/>
<path d="M0 0 C10.23 0 20.46 0 31 0 C31 9.9 31 19.8 31 30 C20.77 30 10.54 30 0 30 C0 20.1 0 10.2 0 0 Z " fill="#FFFFFF" transform="translate(423,169)"/>
<path d="M0 0 C10.23 0 20.46 0 31 0 C31 9.9 31 19.8 31 30 C20.77 30 10.54 30 0 30 C0 20.1 0 10.2 0 0 Z " fill="#FFFFFF" transform="translate(390,169)"/>
<path d="M0 0 C10.23 0 20.46 0 31 0 C31 9.9 31 19.8 31 30 C20.77 30 10.54 30 0 30 C0 20.1 0 10.2 0 0 Z " fill="#FFFFFF" transform="translate(357,169)"/>
<path d="M0 0 C6.93 0 13.86 0 21 0 C21 3.3 21 6.6 21 10 C18.36 10 15.72 10 13 10 C13 12.97 13 15.94 13 19 C15.64 19 18.28 19 21 19 C21 21.97 21 24.94 21 28 C18.36 28 15.72 28 13 28 C13 30.97 13 33.94 13 37 C15.97 37 18.94 37 22 37 C22 40.3 22 43.6 22 47 C14.74 47 7.48 47 0 47 C0 31.49 0 15.98 0 0 Z " fill="#FEFEFE" transform="translate(278,7)"/>
<path d="M0 0 C3.96 0 7.92 0 12 0 C13.21539644 4.69953288 14.19838392 9.19030352 15 14 C15.99 9.38 16.98 4.76 18 0 C21.96 0 25.92 0 30 0 C29.42149778 2.39709163 28.83800326 4.79273291 28.25 7.1875 C28.07170654 7.91855957 27.89341309 8.64961914 27.7097168 9.40283203 C26.6121252 13.81723677 25.31467862 18.0775586 23.8125 22.375 C21.22920597 30.40853791 21.18786356 38.63067828 21 47 C17.04 47 13.08 47 9 47 C9.0309375 45.55560547 9.0309375 45.55560547 9.0625 44.08203125 C8.97120436 28.72573268 4.37735304 14.57788188 0 0 Z " fill="#FEFEFE" transform="translate(394,7)"/>
<path d="M0 0 C12.21 0 24.42 0 37 0 C37 5.61 37 11.22 37 17 C36.505 16.01 36.505 16.01 36 15 C24.12 15 12.24 15 0 15 C0 10.05 0 5.1 0 0 Z " fill="#14DF3B" transform="translate(191,283)"/>
<path d="M0 0 C12.21 0 24.42 0 37 0 C37 5.28 37 10.56 37 16 C18.685 15.505 18.685 15.505 0 15 C0 10.05 0 5.1 0 0 Z " fill="#14DF3B" transform="translate(232,283)"/>
<path d="M0 0 C4.96622349 -0.02465098 9.93241166 -0.04283649 14.89868164 -0.05493164 C16.58944316 -0.0599719 18.28020029 -0.06680405 19.97094727 -0.07543945 C22.39600707 -0.08751857 24.82100944 -0.09323123 27.24609375 -0.09765625 C28.38672523 -0.10539818 28.38672523 -0.10539818 29.55039978 -0.11329651 C31.3673257 -0.11349238 33.18413127 -0.06197277 35 0 C38.30823887 3.30823887 36 9.32144372 36 14 C24.12 14 12.24 14 0 14 C0 9.38 0 4.76 0 0 Z " fill="#34CF9B" transform="translate(151,305)"/>
<path d="M0 0 C12.21 0 24.42 0 37 0 C37 4.29 37 8.58 37 13 C24.79 13 12.58 13 0 13 C0 8.71 0 4.42 0 0 Z " fill="#2DED04" transform="translate(270,267)"/>
<path d="M0 0 C4.62 0 9.24 0 14 0 C13.34 11.55 12.68 23.1 12 35 C8.7 35 5.4 35 2 35 C-0.05609323 32.94390677 0.57882063 28.77145742 0.4375 25.9375 C0.3950415 25.13779785 0.35258301 24.3380957 0.30883789 23.51416016 C-0.07519813 15.66808013 -0.07140403 7.85444308 0 0 Z " fill="#FEFEFE" transform="translate(930,489)"/>
<path d="M0 0 C11.88 0 23.76 0 36 0 C36 3.3 36 6.6 36 10 C35 11 35 11 31.67358398 11.11352539 C30.19774444 11.11336629 28.72189931 11.10767314 27.24609375 11.09765625 C26.47064713 11.0962413 25.6952005 11.09482635 24.89625549 11.09336853 C22.40996506 11.08775345 19.9237634 11.07519846 17.4375 11.0625 C15.75586067 11.05748694 14.07421994 11.0529237 12.39257812 11.04882812 C8.26168434 11.03777913 4.13085724 11.02050445 0 11 C0 7.37 0 3.74 0 0 Z " fill="#A9FB11" transform="translate(151,244)"/>
<path d="M0 0 C12.21 0 24.42 0 37 0 C37 2.97 37 5.94 37 9 C24.79 9 12.58 9 0 9 C0 6.03 0 3.06 0 0 Z " fill="#BEFE14" transform="translate(270,244)"/>
<path d="M0 0 C5.10863896 -0.0246501 10.21724359 -0.04283607 15.32592773 -0.05493164 C17.06519168 -0.05997204 18.80445136 -0.0668043 20.54370117 -0.07543945 C23.03825937 -0.08751792 25.53276173 -0.09323108 28.02734375 -0.09765625 C28.80963852 -0.10281754 29.59193329 -0.10797882 30.39793396 -0.11329651 C32.26567114 -0.11349226 34.13329204 -0.06199694 36 0 C37 1 37 1 37 9 C24.79 9 12.58 9 0 9 C0 6.03 0 3.06 0 0 Z " fill="#36CEA1" transform="translate(232,310)"/>
<path d="M0 0 C11.88 0 23.76 0 36 0 C37 2 37 2 37 9 C24.79 9 12.58 9 0 9 C0 6.03 0 3.06 0 0 Z " fill="#3BCCB1" transform="translate(191,310)"/>
<path d="M0 0 C11.88 0 23.76 0 36 0 C36 3.3 36 6.6 36 10 C24.12 9.67 12.24 9.34 0 9 C0 6.03 0 3.06 0 0 Z " fill="#0AE31F" transform="translate(151,284)"/>
<path d="M0 0 C0 3.3 0 6.6 0 10 C-11.88 10 -23.76 10 -36 10 C-36 7.03 -36 4.06 -36 1 C-31.03377796 0.85740363 -26.06755068 0.71499183 -21.10131836 0.57275391 C-19.41056168 0.52430257 -17.71980647 0.47580007 -16.02905273 0.42724609 C-13.60400771 0.35761398 -11.17895754 0.28816361 -8.75390625 0.21875 C-7.99348526 0.19687622 -7.23306427 0.17500244 -6.44960022 0.15246582 C-1.11387171 0 -1.11387171 0 0 0 Z " fill="#0BEA01" transform="translate(187,270)"/>
<path d="M0 0 C12.21 0 24.42 0 37 0 C37 2.64 37 5.28 37 8 C18.685 7.505 18.685 7.505 0 7 C0 4.69 0 2.38 0 0 Z " fill="#01E704" transform="translate(232,283)"/>
<path d="M0 0 C12.21 0 24.42 0 37 0 C37 2.64 37 5.28 37 8 C18.685 7.505 18.685 7.505 0 7 C0 4.69 0 2.38 0 0 Z " fill="#01E704" transform="translate(191,283)"/>
<path d="M0 0 C12.21 0 24.42 0 37 0 C37 2.31 37 4.62 37 7 C24.79 7 12.58 7 0 7 C0 4.69 0 2.38 0 0 Z " fill="#7DF60D" transform="translate(270,253)"/>
<path d="M0 0 C0.04241723 2.33294775 0.04092937 4.66702567 0 7 C-1 8 -1 8 -4.32641602 8.11352539 C-5.80225556 8.11336629 -7.27810069 8.10767314 -8.75390625 8.09765625 C-9.52935287 8.0962413 -10.3047995 8.09482635 -11.10374451 8.09336853 C-13.59003494 8.08775345 -16.0762366 8.07519846 -18.5625 8.0625 C-20.24413933 8.05748694 -21.92578006 8.0529237 -23.60742188 8.04882812 C-27.73831566 8.03777913 -31.86914276 8.02050445 -36 8 C-36 5.69 -36 3.38 -36 1 C-31.03377796 0.85740363 -26.06755068 0.71499183 -21.10131836 0.57275391 C-19.41056168 0.52430257 -17.71980647 0.47580007 -16.02905273 0.42724609 C-13.60400771 0.35761398 -11.17895754 0.28816361 -8.75390625 0.21875 C-7.99348526 0.19687622 -7.23306427 0.17500244 -6.44960022 0.15246582 C-1.11387171 0 -1.11387171 0 0 0 Z " fill="#4DF107" transform="translate(187,263)"/>
<path d="M0 0 C5.10863896 -0.0246501 10.21724359 -0.04283607 15.32592773 -0.05493164 C17.06519168 -0.05997204 18.80445136 -0.0668043 20.54370117 -0.07543945 C23.03825937 -0.08751792 25.53276173 -0.09323108 28.02734375 -0.09765625 C28.80963852 -0.10281754 29.59193329 -0.10797882 30.39793396 -0.11329651 C32.26567114 -0.11349226 34.13329204 -0.06199694 36 0 C37 1 37 1 37 7 C18.685 6.505 18.685 6.505 0 6 C0 4.02 0 2.04 0 0 Z " fill="#21D961" transform="translate(232,298)"/>
<path d="M0 0 C11.88 0 23.76 0 36 0 C37.35439668 2.70879335 37.06501451 5.00933268 37 8 C36.505 7.01 36.505 7.01 36 6 C24.12 6 12.24 6 0 6 C0 4.02 0 2.04 0 0 Z " fill="#21D961" transform="translate(191,298)"/>
<path d="M0 0 C12.21 0 24.42 0 37 0 C37 1.98 37 3.96 37 6 C24.79 6 12.58 6 0 6 C0 4.02 0 2.04 0 0 Z " fill="#08E900" transform="translate(270,274)"/>
<path d="M0 0 C4.96622349 -0.02465098 9.93241166 -0.04283649 14.89868164 -0.05493164 C16.58944316 -0.0599719 18.28020029 -0.06680405 19.97094727 -0.07543945 C22.39600707 -0.08751857 24.82100944 -0.09323123 27.24609375 -0.09765625 C28.38672523 -0.10539818 28.38672523 -0.10539818 29.55039978 -0.11329651 C31.3673257 -0.11349238 33.18413127 -0.06197277 35 0 C36 1 36 1 36 7 C24.12 6.67 12.24 6.34 0 6 C0 4.02 0 2.04 0 0 Z " fill="#2DD385" transform="translate(151,305)"/>
<path d="M0 0 C4.96622349 -0.02465098 9.93241166 -0.04283649 14.89868164 -0.05493164 C16.58944316 -0.0599719 18.28020029 -0.06680405 19.97094727 -0.07543945 C22.39600707 -0.08751857 24.82100944 -0.09323123 27.24609375 -0.09765625 C28.38672523 -0.10539818 28.38672523 -0.10539818 29.55039978 -0.11329651 C31.3673257 -0.11349238 33.18413127 -0.06197277 35 0 C36 1 36 1 36 7 C24.12 6.67 12.24 6.34 0 6 C0 4.02 0 2.04 0 0 Z " fill="#17DD45" transform="translate(151,293)"/>
<path d="M0 0 C0 1.65 0 3.3 0 5 C-12.21 5 -24.42 5 -37 5 C-37 3.68 -37 2.36 -37 1 C-31.89136231 0.85740867 -26.78271967 0.71499676 -21.67407227 0.57275391 C-19.93481306 0.52430114 -18.19555525 0.47579864 -16.45629883 0.42724609 C-13.9617549 0.3576177 -11.4672061 0.28816597 -8.97265625 0.21875 C-8.19036148 0.19687622 -7.40806671 0.17500244 -6.60206604 0.15246582 C-1.11387171 0 -1.11387171 0 0 0 Z " fill="#A5FB11" transform="translate(307,248)"/>
<path d="M0 0 C0 1.65 0 3.3 0 5 C-11.88 5 -23.76 5 -36 5 C-36 3.68 -36 2.36 -36 1 C-31.03377796 0.85740363 -26.06755068 0.71499183 -21.10131836 0.57275391 C-19.41056168 0.52430257 -17.71980647 0.47580007 -16.02905273 0.42724609 C-13.60400771 0.35761398 -11.17895754 0.28816361 -8.75390625 0.21875 C-7.99348526 0.19687622 -7.23306427 0.17500244 -6.44960022 0.15246582 C-1.11387171 0 -1.11387171 0 0 0 Z " fill="#25EC03" transform="translate(187,270)"/>
<path d="M0 0 C0 1.65 0 3.3 0 5 C-11.88 5 -23.76 5 -36 5 C-36 3.68 -36 2.36 -36 1 C-31.03377796 0.85740363 -26.06755068 0.71499183 -21.10131836 0.57275391 C-19.41056168 0.52430257 -17.71980647 0.47580007 -16.02905273 0.42724609 C-13.60400771 0.35761398 -11.17895754 0.28816361 -8.75390625 0.21875 C-7.99348526 0.19687622 -7.23306427 0.17500244 -6.44960022 0.15246582 C-1.11387171 0 -1.11387171 0 0 0 Z " fill="#81F70D" transform="translate(187,254)"/>
<path d="M0 0 C11.88 0 23.76 0 36 0 C36 1.32 36 2.64 36 4 C24.12 4 12.24 4 0 4 C0 2.68 0 1.36 0 0 Z " fill="#02E707" transform="translate(151,284)"/>
<path d="M0 0 C11.88 0 23.76 0 36 0 C36 1.32 36 2.64 36 4 C24.12 4 12.24 4 0 4 C0 2.68 0 1.36 0 0 Z " fill="#BFFE14" transform="translate(151,244)"/>
<path d="M0 0 C3.96 0 7.92 0 12 0 C12 3.3 12 6.6 12 10 C8.04 10 4.08 10 0 10 C0 6.7 0 3.4 0 0 Z " fill="#FEFEFE" transform="translate(931,526)"/>
<path d="M0 0 C11.88 0 23.76 0 36 0 C36.495 1.98 36.495 1.98 37 4 C18.685 3.505 18.685 3.505 0 3 C0 2.01 0 1.02 0 0 Z " fill="#31D191" transform="translate(232,310)"/>
<path d="M0 0 C11.88 0 23.76 0 36 0 C36.495 2.475 36.495 2.475 37 5 C36.505 4.01 36.505 4.01 36 3 C24.12 3 12.24 3 0 3 C0 2.01 0 1.02 0 0 Z " fill="#31D191" transform="translate(191,310)"/>
<path d="M0 0 C11.88 0 23.76 0 36 0 C36.495 1.98 36.495 1.98 37 4 C18.685 3.505 18.685 3.505 0 3 C0 2.01 0 1.02 0 0 Z " fill="#26D671" transform="translate(232,304)"/>
<path d="M0 0 C11.88 0 23.76 0 36 0 C36.495 2.475 36.495 2.475 37 5 C36.505 4.01 36.505 4.01 36 3 C24.12 3 12.24 3 0 3 C0 2.01 0 1.02 0 0 Z " fill="#26D671" transform="translate(191,304)"/>
<path d="M0 0 C11.88 0 23.76 0 36 0 C36.495 1.98 36.495 1.98 37 4 C18.685 3.505 18.685 3.505 0 3 C0 2.01 0 1.02 0 0 Z " fill="#1BDB51" transform="translate(232,298)"/>
<path d="M0 0 C11.88 0 23.76 0 36 0 C36.495 2.475 36.495 2.475 37 5 C36.505 4.01 36.505 4.01 36 3 C24.12 3 12.24 3 0 3 C0 2.01 0 1.02 0 0 Z " fill="#1BDB51" transform="translate(191,298)"/>
<path d="M0 0 C11.88 0 23.76 0 36 0 C36.495 1.98 36.495 1.98 37 4 C18.685 3.505 18.685 3.505 0 3 C0 2.01 0 1.02 0 0 Z " fill="#0DE225" transform="translate(232,290)"/>
<path d="M0 0 C11.88 0 23.76 0 36 0 C36.495 1.98 36.495 1.98 37 4 C18.685 3.505 18.685 3.505 0 3 C0 2.01 0 1.02 0 0 Z " fill="#0DE225" transform="translate(191,290)"/>
<path d="M0 0 C11.88 0 23.76 0 36 0 C36.495 1.98 36.495 1.98 37 4 C18.685 3.505 18.685 3.505 0 3 C0 2.01 0 1.02 0 0 Z " fill="#07E515" transform="translate(232,287)"/>
<path d="M0 0 C11.88 0 23.76 0 36 0 C36.495 1.98 36.495 1.98 37 4 C18.685 3.505 18.685 3.505 0 3 C0 2.01 0 1.02 0 0 Z " fill="#07E515" transform="translate(191,287)"/>
<path d="M0 0 C11.88 0 23.76 0 36 0 C36.495 1.485 36.495 1.485 37 3 C24.79 3 12.58 3 0 3 C0 2.01 0 1.02 0 0 Z " fill="#3CCCB1" transform="translate(232,316)"/>
<path d="M0 0 C11.88 0 23.76 0 36 0 C36.495 1.98 36.495 1.98 37 4 C18.685 3.505 18.685 3.505 0 3 C0 2.01 0 1.02 0 0 Z " fill="#36CEA1" transform="translate(191,313)"/>
<path d="M0 0 C12.21 0 24.42 0 37 0 C36.67 0.99 36.34 1.98 36 3 C24.12 3 12.24 3 0 3 C0 2.01 0 1.02 0 0 Z " fill="#19EB02" transform="translate(270,274)"/>
<path d="M0 0 C12.21 0 24.42 0 37 0 C36.67 0.99 36.34 1.98 36 3 C24.12 3 12.24 3 0 3 C0 2.01 0 1.02 0 0 Z " fill="#41F007" transform="translate(270,267)"/>
<path d="M0 0 C12.21 0 24.42 0 37 0 C36.67 0.99 36.34 1.98 36 3 C24.12 3 12.24 3 0 3 C0 2.01 0 1.02 0 0 Z " fill="#69F40B" transform="translate(270,260)"/>
<path d="M0 0 C12.21 0 24.42 0 37 0 C36.67 0.99 36.34 1.98 36 3 C24.12 3 12.24 3 0 3 C0 2.01 0 1.02 0 0 Z " fill="#91F80F" transform="translate(270,253)"/>
<path d="M0 0 C11.88 0 23.76 0 36 0 C36 0.99 36 1.98 36 3 C24.12 3 12.24 3 0 3 C0 2.01 0 1.02 0 0 Z " fill="#3BCCB1" transform="translate(151,316)"/>
<path d="M0 0 C11.55 0 23.1 0 35 0 C35.495 1.98 35.495 1.98 36 4 C24.12 3.67 12.24 3.34 0 3 C0 2.01 0 1.02 0 0 Z " fill="#28D575" transform="translate(151,305)"/>
<path d="M0 0 C11.55 0 23.1 0 35 0 C35.495 1.98 35.495 1.98 36 4 C24.12 3.67 12.24 3.34 0 3 C0 2.01 0 1.02 0 0 Z " fill="#1DDA55" transform="translate(151,299)"/>
<path d="M0 0 C11.55 0 23.1 0 35 0 C35.495 1.98 35.495 1.98 36 4 C24.12 3.67 12.24 3.34 0 3 C0 2.01 0 1.02 0 0 Z " fill="#12E035" transform="translate(151,293)"/>
<path d="M0 0 C11.88 0 23.76 0 36 0 C35.67 0.99 35.34 1.98 35 3 C23.45 3 11.9 3 0 3 C0 2.01 0 1.02 0 0 Z " fill="#95F90F" transform="translate(151,252)"/>
<path d="M0 0 C11.55 0 23.1 0 35 0 C34.67 0.99 34.34 1.98 34 3 C22.45 3 10.9 3 -1 3 C-0.67 2.01 -0.34 1.02 0 0 Z " fill="#39EF05" transform="translate(152,268)"/>
<path d="M0 0 C0.66 0.33 1.32 0.66 2 1 C2 11.23 2 21.46 2 32 C1.01 32 0.02 32 -1 32 C-1.02465504 27.60343827 -1.04283842 23.2069128 -1.05493164 18.81030273 C-1.05997121 17.31355082 -1.06680287 15.81680384 -1.07543945 14.32006836 C-1.08752159 12.17300193 -1.09323191 10.02600038 -1.09765625 7.87890625 C-1.10289307 6.5854126 -1.10812988 5.29191895 -1.11352539 3.95922852 C-1 1 -1 1 0 0 Z " fill="#000000" transform="translate(901,496)"/>
<path d="M0 0 C0.99 0.33 1.98 0.66 3 1 C3 10.57 3 20.14 3 30 C2.01 30.33 1.02 30.66 0 31 C0 20.77 0 10.54 0 0 Z " fill="#000000" transform="translate(367,15)"/>
<path d="M0 0 C0.33 0 0.66 0 1 0 C1.33 4.95 1.66 9.9 2 15 C0.68 15 -0.64 15 -2 15 C-1.85879286 13.06215735 -1.71187127 11.12473045 -1.5625 9.1875 C-1.48128906 8.10855469 -1.40007812 7.02960937 -1.31640625 5.91796875 C-1 3 -1 3 0 0 Z " fill="#000000" transform="translate(326,23)"/>
<path d="M0 0 C0.99 0.33 1.98 0.66 3 1 C3 3.97 3 6.94 3 10 C2.01 10.33 1.02 10.66 0 11 C0 7.37 0 3.74 0 0 Z " fill="#000000" transform="translate(248,15)"/>
</svg>
